<?xml version="1.0" standalone="no"?>
<!DOCTYPE svg PUBLIC "-//W3C//DTD SVG 20010904//EN"
 "http://www.w3.org/TR/2001/REC-SVG-20010904/DTD/svg10.dtd">
<svg version="1.0" xmlns="http://www.w3.org/2000/svg"
 width="833.000000pt" height="562.000000pt" viewBox="0 0 833.000000 562.000000"
 preserveAspectRatio="xMidYMid meet">

<g transform="translate(0.000000,562.000000) scale(0.100000,-0.100000)"
fill="#000000" stroke="none">
<path d="M3337 3051 c-40 -26 -56 -53 -63 -105 -8 -56 12 -90 96 -167 52 -48
60 -61 60 -92 0 -57 -60 -87 -106 -52 -29 22 -41 18 -53 -16 -14 -42 -2 -56
55 -65 92 -13 163 23 185 96 18 60 -6 112 -91 194 -56 53 -70 73 -70 96 0 41
40 68 76 51 32 -14 41 -9 49 30 5 22 3 34 -6 40 -25 16 -103 10 -132 -10z"/>
<path d="M3594 3056 c-3 -8 -4 -101 -2 -208 3 -210 9 -233 61 -272 21 -16 43
-21 86 -21 68 1 107 22 126 68 14 37 29 415 16 435 -5 8 -22 12 -42 10 l-34
-3 -5 -191 c-4 -171 -7 -194 -24 -213 -25 -27 -61 -27 -80 1 -13 18 -16 57
-16 215 l0 193 -40 0 c-26 0 -43 -5 -46 -14z"/>
<path d="M3960 2811 l0 -261 34 0 c42 0 46 9 46 111 l0 79 31 0 c105 0 161
100 125 223 -23 78 -54 99 -157 105 l-79 5 0 -262z m140 159 c31 -31 28 -113
-5 -145 -46 -47 -55 -36 -55 70 0 88 1 95 20 95 11 0 29 -9 40 -20z"/>
<path d="M4284 3057 c-2 -7 -3 -120 -2 -252 l3 -240 105 0 105 0 3 34 c2 18 0
37 -5 42 -5 5 -34 10 -66 11 l-57 2 0 68 0 67 56 3 c64 3 81 19 70 61 -6 26
-10 27 -67 27 l-60 0 3 53 3 52 63 3 62 3 0 39 0 40 -105 0 c-76 0 -107 -4
-111 -13z"/>
<path d="M4575 3057 c-3 -7 -4 -123 -3 -257 l3 -245 40 0 40 0 5 100 5 100 49
-102 49 -103 44 0 c28 0 43 4 43 13 0 7 -23 57 -51 111 l-51 98 30 32 c17 17
36 44 41 59 27 72 -2 162 -63 191 -42 20 -174 23 -181 3z m143 -84 c48 -41 20
-143 -38 -143 -18 0 -20 7 -20 73 0 41 3 77 7 80 11 12 30 8 51 -10z"/>
<path d="M4930 2811 l0 -261 33 0 c59 0 58 -6 55 266 l-3 249 -42 3 -43 3 0
-260z"/>
<path d="M5095 3048 c-3 -13 -4 -126 -3 -253 l3 -230 48 -3 c68 -4 152 15 186
43 95 81 100 324 8 413 -43 42 -75 52 -162 52 -69 0 -75 -2 -80 -22z m164 -74
c35 -25 51 -75 51 -160 0 -113 -36 -174 -102 -174 l-28 0 0 175 0 175 28 0
c15 0 38 -7 51 -16z"/>
<path d="M5482 2818 l3 -253 105 0 105 0 3 34 c2 18 0 37 -5 42 -5 5 -34 10
-66 11 l-57 2 0 68 0 67 58 3 57 3 3 43 3 42 -61 0 -61 0 3 53 3 52 63 3 62 3
0 39 0 40 -110 0 -110 0 2 -252z"/>
<path d="M6443 3051 c-42 -26 -63 -69 -63 -127 0 -46 3 -50 75 -123 42 -42 78
-86 82 -99 15 -60 -46 -98 -107 -67 -37 19 -47 13 -56 -32 -6 -30 -4 -32 32
-42 108 -30 197 9 211 92 11 73 -3 105 -83 183 -64 63 -74 77 -74 108 0 45 27
63 72 47 17 -6 32 -11 34 -11 6 0 25 72 20 77 -3 4 -30 8 -59 10 -40 3 -60 -1
-84 -16z"/>
<path d="M5897 2805 l-127 -255 260 0 260 0 -127 255 c-70 140 -130 255 -133
255 -3 0 -63 -115 -133 -255z m211 20 l72 -145 -100 0 c-98 0 -100 1 -90 20 8
16 21 20 60 20 34 0 50 4 50 13 -1 6 -16 41 -34 77 l-34 65 -56 -113 c-31 -61
-56 -114 -56 -117 0 -3 63 -5 140 -5 127 0 140 -2 150 -19 5 -11 10 -22 10
-25 0 -3 -85 -6 -190 -6 -104 0 -190 2 -190 5 0 10 185 375 190 375 3 0 38
-65 78 -145z"/>
</g>
</svg>
